<svg xmlns="http://www.w3.org/2000/svg" width="1600" height="900" viewBox="0 0 1600 900">
  <defs>
    <linearGradient id="sky" x1="0" y1="0" x2="0" y2="1">
      <stop offset="0" stop-color="#0b1530"/>
      <stop offset="1" stop-color="#050812"/>
    </linearGradient>
  </defs>
  <rect width="1600" height="900" fill="url(#sky)"/>
  <circle cx="1260" cy="170" r="80" fill="#4b7cff" opacity="0.18"/>
  <rect y="680" width="1600" height="220" fill="#060915"/>

  <!-- buildings -->
  <g fill="#0d1430">
    <rect x="120" y="360" width="180" height="320"/>
    <rect x="340" y="300" width="240" height="380"/>
    <rect x="620" y="260" width="260" height="420"/>
    <rect x="920" y="320" width="220" height="360"/>
    <rect x="1180" y="280" width="280" height="400"/>
  </g>

  <!-- windows -->
  <g fill="#a8c2ff" opacity="0.25">
    <rect x="150" y="400" width="16" height="20"/>
    <rect x="190" y="430" width="16" height="20"/>
    <rect x="420" y="360" width="16" height="20"/>
    <rect x="470" y="420" width="16" height="20"/>
    <rect x="700" y="330" width="16" height="20"/>
    <rect x="760" y="380" width="16" height="20"/>
    <rect x="1020" y="380" width="16" height="20"/>
    <rect x="1060" y="430" width="16" height="20"/>
    <rect x="1260" y="340" width="16" height="20"/>
    <rect x="1340" y="410" width="16" height="20"/>
  </g>
</svg>
